# xmcd
#
# Track frame offsets: 
#        150
#        19113
#        36658
#        52376
#        69725
#        94350
#        112923
#        130401
#        144630
#        174338
#
# Disc length: 2730 seconds
#
# Revision: 1
# Processed by: cddbd v1.5.2PL0 Copyright (c) Steve Scherf et al.
# Submitted via: ExactAudioCopy v0.95a4
#
DISCID=990aa80a
DTITLE=Laurence Jones - Thunder In The Sky
DYEAR=2012
DGENRE=Blues
TTITLE0=Bad Girl
TTITLE1=Not Stickin' Around
TTITLE2=Too Good
TTITLE3=Why Do You Love Me
TTITLE4=The Thrill Is Gone
TTITLE5=Gotta Get Back Up
TTITLE6=Cornered
TTITLE7=Put A Spell On Me
TTITLE8=Thunder In The Sky
TTITLE9=Going Down
EXTD=Year: 2012\n\n\n\n\n\n                                           
EXTD= www.laurencejonesmusic.com
EXTT0=
EXTT1=
EXTT2=
EXTT3=
EXTT4=
EXTT5=
EXTT6=
EXTT7=
EXTT8=
EXTT9=
PLAYORDER=
